# This file uses centimeters as units for non-parametric coordinates.

mtllib MonstreBody.mtl
g default
v -10.651652 -0.007196 10.651652
v 10.651652 -0.007196 10.651652
v -10.651652 14.784959 10.651652
v 10.651652 14.784959 10.651652
v -10.651652 14.784959 -10.651652
v 10.651652 14.784959 -10.651652
v -10.651652 -0.007196 -10.651652
v 10.651652 -0.007196 -10.651652
v 13.230417 3.901388 -5.022603
v 13.230417 3.901388 5.022603
v 13.230417 10.876374 -5.022603
v 13.230417 10.876374 5.022603
v -13.230417 3.901388 -5.022603
v -13.230417 3.901388 5.022603
v -13.230417 10.876374 5.022603
v -13.230417 10.876374 -5.022603
v 13.559547 3.901388 -5.022603
v 13.559547 3.901388 5.022603
v 13.230417 10.876374 -5.022603
v 13.230417 10.876374 5.022603
v -13.559547 3.901388 -5.022603
v -13.559547 3.901388 5.022603
v -13.230417 10.876374 5.022603
v -13.230417 10.876374 -5.022603
v 16.221699 3.901388 -5.022603
v 16.221699 3.901388 5.022603
v 18.591873 10.876374 -5.022603
v 18.591873 10.876374 5.022603
v -16.221699 3.901388 -5.022603
v -16.221699 3.901388 5.022603
v -18.591873 10.876374 5.022603
v -18.591873 10.876374 -5.022603
v 12.317174 5.849149 25.460726
v 12.317174 8.928613 25.460726
v 14.683783 5.849149 25.460726
v 14.683783 8.928613 25.460726
v -12.317174 5.849149 25.460726
v -12.317174 8.928613 25.460726
v -14.683783 8.928613 25.460726
v -14.683783 5.849149 25.460726
v -7.298435 3.948808 7.824376
v 7.298435 3.948808 7.824376
v 7.298435 10.828955 7.824376
v -7.298435 10.828955 7.824376
v -5.961007 20.370897 10.651652
v 5.961007 20.370897 10.651652
v 5.961007 20.370897 -10.651652
v -5.961007 20.370897 -10.651652
v -2.268125 16.207392 10.651652
v 2.268125 16.207392 10.651652
v 1.669469 18.320063 10.651652
v -1.669469 18.320063 10.651652
v -2.268125 16.207392 14.603284
v 2.268125 16.207392 14.603284
v 1.669469 18.320063 14.603284
v -1.669469 18.320063 14.603284
v -0.492701 16.751908 13.727048
v 0.492701 16.751908 13.727048
v 0.362657 17.674301 13.727048
v -0.362657 17.674301 13.727048
vt 0.000000 0.000000
vt 0.000000 0.001075
vt 0.000000 0.000617
vt 0.000000 0.001075
vt 0.000000 0.000000
vt 0.000000 0.001075
vt 0.000000 0.000617
vt 0.000000 0.001075
vt 0.754013 0.132482
vt 0.754013 0.029219
vt 0.857274 0.029219
vt 0.857274 0.132482
vt 0.828439 0.342581
vt 0.782848 0.342581
vt 0.687237 0.647494
vt 0.687237 0.544232
vt 0.790499 0.544232
vt 0.790499 0.647494
vt 0.716073 0.334134
vt 0.761664 0.334134
vt 0.261545 0.029219
vt 0.492360 0.029219
vt 0.431371 0.090209
vt 0.322534 0.090209
vt 0.492360 0.260035
vt 0.431371 0.199045
vt 0.261545 0.260035
vt 0.322534 0.199045
vt 0.492360 0.347197
vt 0.261545 0.347197
vt 0.019485 0.029219
vt 0.250300 0.029219
vt 0.189311 0.090209
vt 0.080474 0.090209
vt 0.250300 0.260034
vt 0.189311 0.199045
vt 0.019485 0.260034
vt 0.080474 0.199045
vt 0.250300 0.347196
vt 0.019485 0.347196
vt 0.320629 0.830000
vt 0.219811 0.830000
vt 0.247964 0.624874
vt 0.292476 0.624874
vt 0.528646 0.601126
vt 0.629465 0.601126
vt 0.601311 0.806251
vt 0.556800 0.806251
vt 0.941818 0.092903
vt 0.972916 0.092903
vt 0.972916 0.133293
vt 0.941818 0.133293
vt 0.972916 0.184367
vt 0.941818 0.184367
vt 0.941818 0.143977
vt 0.972916 0.143977
vt 0.528646 0.334134
vt 0.672085 0.334134
vt 0.672085 0.590442
vt 0.528646 0.590442
vt 0.261545 0.357881
vt 0.517854 0.357881
vt 0.517854 0.614190
vt 0.261545 0.614190
vt 0.890219 0.622800
vt 0.890219 0.501770
vt 0.894185 0.501770
vt 0.894185 0.622800
vt 0.926260 0.501770
vt 0.926260 0.622800
vt 0.907730 0.869050
vt 0.879216 0.869050
vt 0.969512 0.239831
vt 0.969512 0.360862
vt 0.965546 0.360862
vt 0.965546 0.239831
vt 0.933471 0.360862
vt 0.933471 0.239831
vt 0.980515 0.607112
vt 0.952001 0.607112
vt 0.810923 0.720515
vt 0.810923 0.599494
vt 0.875515 0.599494
vt 0.875515 0.720515
vt 0.799921 0.353265
vt 0.828432 0.353265
vt 0.918768 0.278724
vt 0.918768 0.399746
vt 0.854175 0.399746
vt 0.854175 0.278724
vt 0.901258 0.032495
vt 0.929770 0.032495
vt 0.094607 0.155470
vt 0.094607 0.100893
vt 0.142151 0.100893
vt 0.142151 0.155470
vt 0.376839 0.148437
vt 0.336667 0.148437
vt 0.336667 0.100893
vt 0.376839 0.100893
vt 0.055295 0.418724
vt 0.211178 0.418724
vt 0.211178 0.524540
vt 0.055295 0.524540
vt 0.019485 0.357881
vt 0.246987 0.357881
vt 0.246987 0.585383
vt 0.019485 0.585383
vt 0.157458 0.607260
vt 0.109015 0.607260
vt 0.196895 0.671294
vt 0.151065 0.639752
vt 0.069577 0.671294
vt 0.115408 0.639752
vt 0.503605 0.109872
vt 0.717183 0.109872
vt 0.717183 0.323450
vt 0.503605 0.323450
vt 0.550632 0.029219
vt 0.670156 0.029219
vt 0.324147 0.725583
vt 0.324147 0.624874
vt 0.324147 0.624874
vt 0.327447 0.725583
vt 0.377900 0.624874
vt 0.354137 0.725583
vt 0.728972 0.296263
vt 0.728972 0.195556
vt 0.732272 0.195556
vt 0.728972 0.296263
vt 0.732272 0.084367
vt 0.732272 0.185087
vt 0.732272 0.185087
vt 0.728972 0.084367
vt 0.444674 0.624874
vt 0.444674 0.725581
vt 0.441374 0.725581
vt 0.444674 0.624874
vt 0.414685 0.725581
vt 0.390922 0.624874
vt 0.716452 0.073683
vt 0.716452 0.029219
vt 0.740178 0.029219
vt 0.740178 0.073683
vt 0.414649 0.100893
vt 0.414649 0.145356
vt 0.390922 0.145356
vt 0.390922 0.100893
vt 0.950982 0.061477
vt 0.950982 0.049962
vt 0.966507 0.051481
vt 0.966507 0.059958
vt 0.941818 0.082226
vt 0.941818 0.029213
vt 0.977375 0.036209
vt 0.977375 0.075230
vn 0.000000 0.000000 1.000000
vn 0.000000 0.000000 1.000000
vn 0.000000 0.000000 1.000000
vn 0.000000 0.000000 1.000000
vn 0.000000 1.000000 0.000000
vn 0.000000 1.000000 0.000000
vn 0.000000 1.000000 0.000000
vn 0.000000 1.000000 0.000000
vn 0.000000 0.000000 -1.000000
vn 0.000000 0.000000 -1.000000
vn 0.000000 0.000000 -1.000000
vn 0.000000 0.000000 -1.000000
vn 0.000000 -1.000000 0.000000
vn 0.000000 -1.000000 0.000000
vn 0.000000 -1.000000 0.000000
vn 0.000000 -1.000000 0.000000
vn 0.946827 -0.321742 0.000000
vn 0.946827 -0.321742 0.000000
vn 0.946827 -0.321742 0.000000
vn 0.946827 -0.321742 0.000000
vn -0.946827 -0.321742 0.000000
vn -0.946827 -0.321742 0.000000
vn -0.946827 -0.321742 0.000000
vn -0.946827 -0.321742 0.000000
vn 0.834698 -0.550708 0.000000
vn 0.834698 -0.550708 0.000000
vn 0.834698 -0.550708 0.000000
vn 0.834698 -0.550709 0.000000
vn 0.909139 0.000000 -0.416493
vn 0.909139 0.000000 -0.416492
vn 0.909139 0.000000 -0.416493
vn 0.909139 0.000000 -0.416492
vn 0.834698 0.550708 0.000000
vn 0.834698 0.550708 0.000000
vn 0.834698 0.550708 0.000000
vn 0.834698 0.550709 0.000000
vn 0.909139 0.000000 0.416492
vn 0.909139 0.000000 0.416492
vn 0.909139 0.000000 0.416492
vn 0.909139 0.000000 0.416492
vn -0.834698 -0.550708 0.000000
vn -0.834698 -0.550708 0.000000
vn -0.834698 -0.550708 0.000000
vn -0.834698 -0.550709 0.000000
vn -0.909139 0.000000 0.416493
vn -0.909139 0.000000 0.416492
vn -0.909139 0.000000 0.416493
vn -0.909139 0.000000 0.416492
vn -0.834698 0.550708 0.000000
vn -0.834698 0.550708 0.000000
vn -0.834698 0.550708 0.000000
vn -0.834698 0.550709 0.000000
vn -0.909139 0.000000 -0.416492
vn -0.909139 0.000000 -0.416492
vn -0.909139 0.000000 -0.416492
vn -0.909139 0.000000 -0.416492
vn 0.000000 -1.000000 0.000000
vn 0.000000 -1.000000 0.000000
vn 0.000000 -1.000000 0.000000
vn 0.000000 -1.000000 0.000000
vn 0.000000 0.000000 0.000000
vn 0.000000 0.000000 -1.000000
vn 0.000000 0.000000 -1.000000
vn 0.000000 0.000000 -1.000000
vn 0.000000 0.000000 0.000000
vn 0.000000 0.000000 0.000000
vn 0.000000 0.000000 0.000000
vn 0.000000 0.000000 0.000000
vn 0.000000 0.000000 0.000000
vn 0.000000 0.000000 1.000000
vn 0.000000 0.000000 1.000000
vn 0.000000 0.000000 1.000000
vn 0.000000 -1.000000 0.000000
vn 0.000000 -1.000000 0.000000
vn 0.000000 -1.000000 0.000000
vn 0.000000 -1.000000 0.000000
vn 0.000000 0.000000 0.000000
vn 0.000000 0.000000 1.000000
vn 0.000000 0.000000 1.000000
vn 0.000000 0.000000 1.000000
vn 0.000000 0.000000 0.000000
vn 0.000000 0.000000 0.000000
vn 0.000000 0.000000 0.000000
vn 0.000000 0.000000 0.000000
vn 0.000000 0.000000 0.000000
vn 0.000000 0.000000 -1.000000
vn 0.000000 0.000000 -1.000000
vn 0.000000 0.000000 -1.000000
vn 0.000000 -1.000000 0.000000
vn 0.000000 -1.000000 0.000000
vn 0.000000 -1.000000 0.000000
vn 0.000000 -1.000000 0.000000
vn 0.000000 0.000000 -1.000000
vn 0.000000 0.000000 -1.000000
vn 0.000000 0.000000 -1.000000
vn 0.000000 0.000000 -1.000000
vn 0.000000 1.000000 0.000000
vn 0.000000 1.000000 0.000000
vn 0.000000 1.000000 0.000000
vn 0.000000 1.000000 0.000000
vn 0.000000 0.000000 1.000000
vn 0.000000 0.000000 1.000000
vn 0.000000 0.000000 1.000000
vn 0.000000 0.000000 1.000000
vn 0.000000 -1.000000 0.000000
vn 0.000000 -1.000000 0.000000
vn 0.000000 -1.000000 0.000000
vn 0.000000 -1.000000 0.000000
vn 0.000000 0.000000 1.000000
vn 0.000000 0.000000 1.000000
vn 0.000000 0.000000 1.000000
vn 0.000000 0.000000 1.000000
vn 0.000000 1.000000 0.000000
vn 0.000000 1.000000 0.000000
vn 0.000000 1.000000 0.000000
vn 0.000000 1.000000 0.000000
vn 0.000000 0.000000 -1.000000
vn 0.000000 0.000000 -1.000000
vn 0.000000 0.000000 -1.000000
vn 0.000000 0.000000 -1.000000
vn -0.997313 -0.047060 -0.056139
vn -0.998505 -0.022015 -0.050032
vn -0.997502 -0.043865 -0.055361
vn -0.999003 0.000000 -0.044639
vn 0.000000 -0.995490 0.094871
vn 0.000000 -0.995490 0.094871
vn 0.000000 -0.995490 0.094871
vn 0.000000 -0.995490 0.094871
vn 0.936299 -0.318164 0.148714
vn 0.981086 -0.157480 0.112560
vn 0.943198 -0.299136 0.144553
vn 0.997181 0.000000 0.075035
vn 0.000000 0.995490 0.094871
vn 0.000000 0.995490 0.094871
vn 0.000000 0.995490 0.094871
vn 0.000000 0.995490 0.094871
vn 0.997313 -0.047060 -0.056139
vn 0.997502 -0.043865 -0.055361
vn 0.998505 -0.022015 -0.050032
vn 0.999003 0.000000 -0.044639
vn 0.000000 0.995490 0.094871
vn 0.000000 0.995490 0.094871
vn 0.000000 0.995490 0.094871
vn 0.000000 0.995490 0.094871
vn -0.936299 -0.318164 0.148714
vn -0.943198 -0.299136 0.144553
vn -0.981086 -0.157480 0.112560
vn -0.997181 0.000000 0.075035
vn 0.000000 -0.995490 0.094871
vn 0.000000 -0.995490 0.094871
vn 0.000000 -0.995490 0.094871
vn 0.000000 -0.995490 0.094871
vn 0.000000 0.581450 0.813582
vn 0.000000 0.581450 0.813582
vn 0.000000 0.581450 0.813582
vn 0.000000 0.581450 0.813582
vn -0.644604 0.000000 0.764516
vn -0.644604 0.000000 0.764516
vn -0.644604 0.000000 0.764516
vn -0.644604 0.000000 0.764517
vn 0.000000 -0.581451 0.813582
vn 0.000000 -0.581450 0.813582
vn 0.000000 -0.581451 0.813582
vn 0.000000 -0.581450 0.813582
vn 0.644604 0.000000 0.764516
vn 0.644604 0.000000 0.764516
vn 0.644604 0.000000 0.764516
vn 0.644604 0.000000 0.764516
vn 0.000000 0.000000 1.000000
vn 0.000000 0.000000 1.000000
vn 0.000000 0.000000 1.000000
vn 0.000000 0.000000 1.000000
vn 0.765809 0.643068 0.000000
vn 0.765809 0.643068 0.000000
vn 0.765809 0.643068 0.000000
vn 0.765809 0.643068 0.000000
vn 0.000000 0.000000 -1.000000
vn 0.000000 0.000000 -1.000000
vn 0.000000 0.000000 -1.000000
vn 0.000000 0.000000 -1.000000
vn -0.765809 0.643068 0.000000
vn -0.765809 0.643068 0.000000
vn -0.765809 0.643068 0.000000
vn -0.765809 0.643068 0.000000
vn 0.000000 0.000000 1.000000
vn 0.000000 0.000000 1.000000
vn 0.000000 0.000000 1.000000
vn 0.000000 0.000000 1.000000
vn 0.000000 0.000000 1.000000
vn 0.000000 0.000000 1.000000
vn 0.000000 0.000000 1.000000
vn 0.000000 0.000000 1.000000
vn 0.000000 0.000000 1.000000
vn 0.000000 0.000000 1.000000
vn 0.000000 0.000000 1.000000
vn 0.000000 0.000000 1.000000
vn 0.000000 0.000000 1.000000
vn 0.000000 0.000000 1.000000
vn 0.000000 0.000000 1.000000
vn 0.000000 0.000000 1.000000
vn 0.000000 -1.000000 0.000000
vn 0.000000 -1.000000 0.000000
vn 0.000000 -1.000000 0.000000
vn 0.000000 -1.000000 0.000000
vn 0.962119 0.272631 0.000000
vn 0.962119 0.272630 0.000000
vn 0.962119 0.272630 0.000000
vn 0.962119 0.272630 0.000000
vn 0.000000 1.000000 0.000000
vn 0.000000 1.000000 0.000000
vn 0.000000 1.000000 0.000000
vn 0.000000 1.000000 0.000000
vn -0.962119 0.272631 0.000000
vn -0.962119 0.272630 0.000000
vn -0.962119 0.272630 0.000000
vn -0.962119 0.272630 0.000000
vn 0.000000 0.849360 0.527814
vn 0.000000 0.849360 0.527814
vn 0.000000 0.849360 0.527814
vn 0.000000 0.849360 0.527815
vn -0.471238 -0.133532 0.871839
vn -0.482927 -0.122114 0.867104
vn -0.480588 -0.124413 0.868076
vn -0.529639 -0.074671 0.844930
vn 0.000000 -0.805007 0.593266
vn 0.000000 -0.805007 0.593266
vn 0.000000 -0.805007 0.593266
vn 0.000000 -0.805005 0.593268
vn 0.471238 -0.133532 0.871839
vn 0.480588 -0.124413 0.868076
vn 0.482927 -0.122114 0.867104
vn 0.529638 -0.074671 0.844931
s 1
g MonsterBody MonsterGame
usemtl MonsterSG
f 41/101/1 42/102/2 44/104/3
f 44/104/3 42/102/2 43/103/4
s 2
f 45/57/5 46/58/6 48/60/7
f 48/60/7 46/58/6 47/59/8
s 3
f 5/115/9 6/116/10 7/118/11
f 7/118/11 6/116/10 8/117/12
s 4
f 7/61/13 8/62/14 1/64/15
f 1/64/15 8/62/14 2/63/16
s 5
f 26/9/17 25/10/18 28/12/19
f 28/12/19 25/10/18 27/11/20
s 6
f 29/15/21 30/16/22 32/18/23
f 32/18/23 30/16/22 31/17/24
s 7
f 2/21/25 8/22/26 10/24/27
f 10/24/27 8/22/26 9/23/28
s 8
f 8/22/29 6/25/30 9/23/31
f 9/23/31 6/25/30 11/26/32
s 9
f 6/25/33 4/27/34 11/26/35
f 11/26/35 4/27/34 12/28/36
s 10
f 4/27/37 2/21/38 12/28/39
f 12/28/39 2/21/38 10/24/40
s 11
f 7/31/41 1/32/42 13/34/43
f 13/34/43 1/32/42 14/33/44
s 12
f 1/32/45 3/35/46 14/33/47
f 14/33/47 3/35/46 15/36/48
s 13
f 3/35/49 5/37/50 15/36/51
f 15/36/51 5/37/50 16/38/52
s 14
f 5/37/53 7/31/54 16/38/55
f 16/38/55 7/31/54 13/34/56
s 15
f 10/65/57 9/66/58 18/68/59
f 18/68/59 9/66/58 17/67/60
s 16
f 19/123/61 17/124/62 11/122/63
f 9/121/64 11/122/63 17/124/62
s 17
f 19/5/65 11/1/66 20/6/67
f 11/1/66 12/2/68 20/6/67
s 18
f 20/130/69 12/127/70 18/129/71
f 12/127/70 10/128/72 18/129/71
s 19
f 13/73/73 14/74/74 21/76/75
f 21/76/75 14/74/74 22/75/76
s 20
f 23/133/77 22/134/78 15/132/79
f 14/131/80 15/132/79 22/134/78
s 21
f 23/7/81 15/3/82 24/8/83
f 15/3/82 16/4/84 24/8/83
s 22
f 24/138/85 16/135/86 21/137/87
f 16/135/86 13/136/88 21/137/87
s 23
f 18/68/89 17/67/90 26/70/91
f 26/70/91 17/67/90 25/69/92
s 24
f 17/124/93 19/123/94 25/126/95
f 25/126/95 19/123/94 27/125/96
s 25
f 19/81/97 20/82/98 27/84/99
f 27/84/99 20/82/98 28/83/100
s 26
f 34/141/101 33/142/102 36/144/103
f 36/144/103 33/142/102 35/143/104
s 27
f 21/76/105 22/75/106 29/78/107
f 29/78/107 22/75/106 30/77/108
s 28
f 37/145/109 38/146/110 40/148/111
f 40/148/111 38/146/110 39/147/112
s 29
f 23/87/113 24/88/114 31/90/115
f 31/90/115 24/88/114 32/89/116
s 30
f 21/137/117 29/139/118 24/138/119
f 24/138/119 29/139/118 32/140/120
s 31
f 18/42/121 33/43/122 20/41/123
f 20/41/123 33/43/122 34/44/124
s 32
f 26/70/125 35/71/126 18/68/127
f 18/68/127 35/71/126 33/72/128
s 33
f 28/12/129 36/13/130 26/9/131
f 26/9/131 36/13/130 35/14/132
s 34
f 28/83/133 20/82/134 36/86/135
f 36/86/135 20/82/134 34/85/136
s 35
f 22/45/137 23/46/138 37/48/139
f 37/48/139 23/46/138 38/47/140
s 36
f 31/90/141 39/91/142 23/87/143
f 23/87/143 39/91/142 38/92/144
s 37
f 31/17/145 30/16/146 39/20/147
f 39/20/147 30/16/146 40/19/148
s 38
f 30/77/149 22/75/150 40/80/151
f 40/80/151 22/75/150 37/79/152
s 39
f 1/105/153 2/106/154 41/101/155
f 41/101/155 2/106/154 42/102/156
s 40
f 2/106/157 4/107/158 42/102/159
f 42/102/159 4/107/158 43/103/160
s 41
f 4/107/161 3/108/162 43/103/163
f 43/103/163 3/108/162 44/104/164
s 42
f 3/108/165 1/105/166 44/104/167
f 44/104/167 1/105/166 41/101/168
s 43
f 57/149/169 58/150/170 60/152/171
f 60/152/171 58/150/170 59/151/172
s 44
f 4/27/173 6/25/174 46/30/175
f 46/30/175 6/25/174 47/29/176
s 45
f 6/116/177 5/115/178 47/120/179
f 47/120/179 5/115/178 48/119/180
s 46
f 5/37/181 3/35/182 48/40/183
f 48/40/183 3/35/182 45/39/184
s 47
f 3/108/185 4/107/186 49/110/187
f 49/110/187 4/107/186 50/109/188
s 48
f 4/107/189 46/111/190 50/109/191
f 50/109/191 46/111/190 51/112/192
s 49
f 46/111/193 45/113/194 51/112/195
f 51/112/195 45/113/194 52/114/196
s 50
f 3/108/197 49/110/198 45/113/199
f 45/113/199 49/110/198 52/114/200
s 51
f 49/93/201 50/94/202 53/96/203
f 53/96/203 50/94/202 54/95/204
s 52
f 50/49/205 51/50/206 54/52/207
f 54/52/207 51/50/206 55/51/208
s 53
f 51/97/209 52/98/210 55/100/211
f 55/100/211 52/98/210 56/99/212
s 54
f 52/53/213 49/54/214 56/56/215
f 56/56/215 49/54/214 53/55/216
s 55
f 53/153/217 54/154/218 57/149/219
f 57/149/219 54/154/218 58/150/220
s 56
f 54/154/221 55/155/222 58/150/223
f 58/150/223 55/155/222 59/151/224
s 57
f 55/155/225 56/156/226 59/151/227
f 59/151/227 56/156/226 60/152/228
s 58
f 53/153/229 57/149/230 56/156/231
f 56/156/231 57/149/230 60/152/232
