# This file uses centimeters as units for non-parametric coordinates.

mtllib Wood.mtl
g default
v -926.741140 8.012993 800.344627
v -921.124926 8.012993 800.344627
v -926.741140 10.959107 800.344627
v -921.124926 10.959107 800.344627
v -926.741140 10.959107 764.845221
v -921.124926 10.959107 764.845221
v -926.741140 8.012993 764.845221
v -921.124926 8.012993 764.845221
vt 0.251673 0.120055
vt 0.865844 0.026115
vt 0.253235 0.093697
vt 0.998051 1.002056
vt 0.731828 0.023203
vt 0.503235 0.996622
vt 0.499888 0.197767
vt 0.861389 0.152763
vt 0.499888 0.996483
vt 0.749888 0.996483
vt 0.748603 0.156502
vt 0.998602 0.158363
vt 0.001673 0.120055
vt 0.001673 0.994792
vt 0.866321 0.155675
vt 0.251673 0.994792
vt 0.995881 0.155197
vt 0.503235 0.093697
vt 0.748051 1.000195
vt 0.995404 0.025637
vt 0.253235 0.996622
vt 0.861389 0.023203
vt 0.731828 0.152763
vt 0.749888 0.197767
vn 0.000000 0.000000 1.000000
vn 0.000000 0.000000 1.000000
vn 0.000000 0.000000 1.000000
vn 0.000000 0.000000 1.000000
vn 0.000000 1.000000 0.000000
vn 0.000000 1.000000 0.000000
vn 0.000000 1.000000 0.000000
vn 0.000000 1.000000 0.000000
vn 0.000000 0.000000 -1.000000
vn 0.000000 0.000000 -1.000000
vn 0.000000 0.000000 -1.000000
vn 0.000000 0.000000 -1.000000
vn 0.000000 -1.000000 0.000000
vn 0.000000 -1.000000 0.000000
vn 0.000000 -1.000000 0.000000
vn 0.000000 -1.000000 0.000000
vn 1.000000 0.000000 0.000000
vn 1.000000 0.000000 0.000000
vn 1.000000 0.000000 0.000000
vn 1.000000 0.000000 0.000000
vn -1.000000 0.000000 0.000000
vn -1.000000 0.000000 0.000000
vn -1.000000 0.000000 0.000000
vn -1.000000 0.000000 0.000000
s 1
g pCube3 group1
usemtl phong3SG
f 1/15/1 2/2/2 3/17/3
f 3/17/3 2/2/2 4/20/4
s 2
f 3/3/5 4/18/6 5/21/7
f 5/21/7 4/18/6 6/6/8
s 3
f 5/5/9 6/22/10 7/23/11
f 7/23/11 6/22/10 8/8/12
s 4
f 7/7/13 8/24/14 1/9/15
f 1/9/15 8/24/14 2/10/16
s 5
f 2/19/17 8/11/18 4/4/19
f 4/4/19 8/11/18 6/12/20
s 6
f 7/13/21 1/1/22 5/14/23
f 5/14/23 1/1/22 3/16/24
g default
v -972.984121 8.012993 839.565843
v -967.367908 8.012993 839.565843
v -972.984121 10.959107 839.565843
v -967.367908 10.959107 839.565843
v -972.984121 10.959107 804.066438
v -967.367908 10.959107 804.066438
v -972.984121 8.012993 804.066438
v -967.367908 8.012993 804.066438
vt 0.251673 0.120055
vt 0.865844 0.026115
vt 0.253235 0.093697
vt 0.998051 1.002056
vt 0.731828 0.023203
vt 0.503235 0.996622
vt 0.499888 0.197767
vt 0.861389 0.152763
vt 0.499888 0.996483
vt 0.749888 0.996483
vt 0.748603 0.156502
vt 0.998602 0.158363
vt 0.001673 0.120055
vt 0.001673 0.994792
vt 0.866321 0.155675
vt 0.251673 0.994792
vt 0.995881 0.155197
vt 0.503235 0.093697
vt 0.748051 1.000195
vt 0.995404 0.025637
vt 0.253235 0.996622
vt 0.861389 0.023203
vt 0.731828 0.152763
vt 0.749888 0.197767
vn 0.000000 0.000000 1.000000
vn 0.000000 0.000000 1.000000
vn 0.000000 0.000000 1.000000
vn 0.000000 0.000000 1.000000
vn 0.000000 1.000000 0.000000
vn 0.000000 1.000000 0.000000
vn 0.000000 1.000000 0.000000
vn 0.000000 1.000000 0.000000
vn 0.000000 0.000000 -1.000000
vn 0.000000 0.000000 -1.000000
vn 0.000000 0.000000 -1.000000
vn 0.000000 0.000000 -1.000000
vn 0.000000 -1.000000 0.000000
vn 0.000000 -1.000000 0.000000
vn 0.000000 -1.000000 0.000000
vn 0.000000 -1.000000 0.000000
vn 1.000000 0.000000 0.000000
vn 1.000000 0.000000 0.000000
vn 1.000000 0.000000 0.000000
vn 1.000000 0.000000 0.000000
vn -1.000000 0.000000 0.000000
vn -1.000000 0.000000 0.000000
vn -1.000000 0.000000 0.000000
vn -1.000000 0.000000 0.000000
s 1
g group1 pCube8
usemtl phong3SG
f 9/39/25 10/26/26 11/41/27
f 11/41/27 10/26/26 12/44/28
s 2
f 11/27/29 12/42/30 13/45/31
f 13/45/31 12/42/30 14/30/32
s 3
f 13/29/33 14/46/34 15/47/35
f 15/47/35 14/46/34 16/32/36
s 4
f 15/31/37 16/48/38 9/33/39
f 9/33/39 16/48/38 10/34/40
s 5
f 10/43/41 16/35/42 12/28/43
f 12/28/43 16/35/42 14/36/44
s 6
f 15/37/45 9/25/46 13/38/47
f 13/38/47 9/25/46 11/40/48
g default
v -1031.685305 8.012993 795.301169
v -1026.069091 8.012993 795.301169
v -1031.685305 10.959107 795.301169
v -1026.069091 10.959107 795.301169
v -1031.685305 10.959107 759.801763
v -1026.069091 10.959107 759.801763
v -1031.685305 8.012993 759.801763
v -1026.069091 8.012993 759.801763
vt 0.251673 0.120055
vt 0.865844 0.026115
vt 0.253235 0.093697
vt 0.998051 1.002056
vt 0.731828 0.023203
vt 0.503235 0.996622
vt 0.499888 0.197767
vt 0.861389 0.152763
vt 0.499888 0.996483
vt 0.749888 0.996483
vt 0.748603 0.156502
vt 0.998602 0.158363
vt 0.001673 0.120055
vt 0.001673 0.994792
vt 0.866321 0.155675
vt 0.251673 0.994792
vt 0.995881 0.155197
vt 0.503235 0.093697
vt 0.748051 1.000195
vt 0.995404 0.025637
vt 0.253235 0.996622
vt 0.861389 0.023203
vt 0.731828 0.152763
vt 0.749888 0.197767
vn 0.000000 0.000000 1.000000
vn 0.000000 0.000000 1.000000
vn 0.000000 0.000000 1.000000
vn 0.000000 0.000000 1.000000
vn 0.000000 1.000000 0.000000
vn 0.000000 1.000000 0.000000
vn 0.000000 1.000000 0.000000
vn 0.000000 1.000000 0.000000
vn 0.000000 0.000000 -1.000000
vn 0.000000 0.000000 -1.000000
vn 0.000000 0.000000 -1.000000
vn 0.000000 0.000000 -1.000000
vn 0.000000 -1.000000 0.000000
vn 0.000000 -1.000000 0.000000
vn 0.000000 -1.000000 0.000000
vn 0.000000 -1.000000 0.000000
vn 1.000000 0.000000 0.000000
vn 1.000000 0.000000 0.000000
vn 1.000000 0.000000 0.000000
vn 1.000000 0.000000 0.000000
vn -1.000000 0.000000 0.000000
vn -1.000000 0.000000 0.000000
vn -1.000000 0.000000 0.000000
vn -1.000000 0.000000 0.000000
s 1
g group1 pCube9
usemtl phong3SG
f 17/63/49 18/50/50 19/65/51
f 19/65/51 18/50/50 20/68/52
s 2
f 19/51/53 20/66/54 21/69/55
f 21/69/55 20/66/54 22/54/56
s 3
f 21/53/57 22/70/58 23/71/59
f 23/71/59 22/70/58 24/56/60
s 4
f 23/55/61 24/72/62 17/57/63
f 17/57/63 24/72/62 18/58/64
s 5
f 18/67/65 24/59/66 20/52/67
f 20/52/67 24/59/66 22/60/68
s 6
f 23/61/69 17/49/70 21/62/71
f 21/62/71 17/49/70 19/64/72
g default
v -1080.841365 6.861156 818.115403
v -1075.225151 6.861156 818.115403
v -1080.841365 9.807270 818.115403
v -1075.225151 9.807270 818.115403
v -1080.841365 9.807270 782.615997
v -1075.225151 9.807270 782.615997
v -1080.841365 6.861156 782.615997
v -1075.225151 6.861156 782.615997
vt 0.251673 0.120055
vt 0.865844 0.026115
vt 0.253235 0.093697
vt 0.998051 1.002056
vt 0.731828 0.023203
vt 0.503235 0.996622
vt 0.499888 0.197767
vt 0.861389 0.152763
vt 0.499888 0.996483
vt 0.749888 0.996483
vt 0.748603 0.156502
vt 0.998602 0.158363
vt 0.001673 0.120055
vt 0.001673 0.994792
vt 0.866321 0.155675
vt 0.251673 0.994792
vt 0.995881 0.155197
vt 0.503235 0.093697
vt 0.748051 1.000195
vt 0.995404 0.025637
vt 0.253235 0.996622
vt 0.861389 0.023203
vt 0.731828 0.152763
vt 0.749888 0.197767
vn 0.000000 0.000000 1.000000
vn 0.000000 0.000000 1.000000
vn 0.000000 0.000000 1.000000
vn 0.000000 0.000000 1.000000
vn 0.000000 1.000000 0.000000
vn 0.000000 1.000000 0.000000
vn 0.000000 1.000000 0.000000
vn 0.000000 1.000000 0.000000
vn 0.000000 0.000000 -1.000000
vn 0.000000 0.000000 -1.000000
vn 0.000000 0.000000 -1.000000
vn 0.000000 0.000000 -1.000000
vn 0.000000 -1.000000 0.000000
vn 0.000000 -1.000000 0.000000
vn 0.000000 -1.000000 0.000000
vn 0.000000 -1.000000 0.000000
vn 1.000000 0.000000 0.000000
vn 1.000000 0.000000 0.000000
vn 1.000000 0.000000 0.000000
vn 1.000000 0.000000 0.000000
vn -1.000000 0.000000 0.000000
vn -1.000000 0.000000 0.000000
vn -1.000000 0.000000 0.000000
vn -1.000000 0.000000 0.000000
s 1
g group1 pCube10
usemtl phong3SG
f 25/87/73 26/74/74 27/89/75
f 27/89/75 26/74/74 28/92/76
s 2
f 27/75/77 28/90/78 29/93/79
f 29/93/79 28/90/78 30/78/80
s 3
f 29/77/81 30/94/82 31/95/83
f 31/95/83 30/94/82 32/80/84
s 4
f 31/79/85 32/96/86 25/81/87
f 25/81/87 32/96/86 26/82/88
s 5
f 26/91/89 32/83/90 28/76/91
f 28/76/91 32/83/90 30/84/92
s 6
f 31/85/93 25/73/94 29/86/95
f 29/86/95 25/73/94 27/88/96
g default
v -1104.339439 6.782771 798.290637
v -1098.723226 6.782771 798.290637
v -1104.339439 9.728885 798.290637
v -1098.723226 9.728885 798.290637
v -1104.339439 9.728885 762.791232
v -1098.723226 9.728885 762.791232
v -1104.339439 6.782771 762.791232
v -1098.723226 6.782771 762.791232
vt 0.251673 0.120055
vt 0.865844 0.026115
vt 0.253235 0.093697
vt 0.998051 1.002056
vt 0.731828 0.023203
vt 0.503235 0.996622
vt 0.499888 0.197767
vt 0.861389 0.152763
vt 0.499888 0.996483
vt 0.749888 0.996483
vt 0.748603 0.156502
vt 0.998602 0.158363
vt 0.001673 0.120055
vt 0.001673 0.994792
vt 0.866321 0.155675
vt 0.251673 0.994792
vt 0.995881 0.155197
vt 0.503235 0.093697
vt 0.748051 1.000195
vt 0.995404 0.025637
vt 0.253235 0.996622
vt 0.861389 0.023203
vt 0.731828 0.152763
vt 0.749888 0.197767
vn 0.000000 0.000000 1.000000
vn 0.000000 0.000000 1.000000
vn 0.000000 0.000000 1.000000
vn 0.000000 0.000000 1.000000
vn 0.000000 1.000000 0.000000
vn 0.000000 1.000000 0.000000
vn 0.000000 1.000000 0.000000
vn 0.000000 1.000000 0.000000
vn 0.000000 0.000000 -1.000000
vn 0.000000 0.000000 -1.000000
vn 0.000000 0.000000 -1.000000
vn 0.000000 0.000000 -1.000000
vn 0.000000 -1.000000 0.000000
vn 0.000000 -1.000000 0.000000
vn 0.000000 -1.000000 0.000000
vn 0.000000 -1.000000 0.000000
vn 1.000000 0.000000 0.000000
vn 1.000000 0.000000 0.000000
vn 1.000000 0.000000 0.000000
vn 1.000000 0.000000 0.000000
vn -1.000000 0.000000 0.000000
vn -1.000000 0.000000 0.000000
vn -1.000000 0.000000 0.000000
vn -1.000000 0.000000 0.000000
s 1
g group1 pCube11
usemtl phong3SG
f 33/111/97 34/98/98 35/113/99
f 35/113/99 34/98/98 36/116/100
s 2
f 35/99/101 36/114/102 37/117/103
f 37/117/103 36/114/102 38/102/104
s 3
f 37/101/105 38/118/106 39/119/107
f 39/119/107 38/118/106 40/104/108
s 4
f 39/103/109 40/120/110 33/105/111
f 33/105/111 40/120/110 34/106/112
s 5
f 34/115/113 40/107/114 36/100/115
f 36/100/115 40/107/114 38/108/116
s 6
f 39/109/117 33/97/118 37/110/119
f 37/110/119 33/97/118 35/112/120
g default
v -1591.175490 13.737203 821.605536
v -1588.273897 13.636974 826.413089
v -1588.653029 13.768929 820.083769
v -1585.751436 13.668700 824.891323
v -1588.653029 -21.722764 819.343833
v -1585.751436 -21.822993 824.151386
v -1591.175490 -21.754490 820.865599
v -1588.273897 -21.854719 825.673153
vt 0.251673 0.120055
vt 0.865844 0.026115
vt 0.253235 0.093697
vt 0.998051 1.002056
vt 0.731828 0.023203
vt 0.503235 0.996622
vt 0.499888 0.197767
vt 0.861389 0.152763
vt 0.499888 0.996483
vt 0.749888 0.996483
vt 0.748603 0.156502
vt 0.998602 0.158363
vt 0.001673 0.120055
vt 0.001673 0.994792
vt 0.866321 0.155675
vt 0.251673 0.994792
vt 0.995881 0.155197
vt 0.503235 0.093697
vt 0.748051 1.000195
vt 0.995404 0.025637
vt 0.253235 0.996622
vt 0.861389 0.023203
vt 0.731828 0.152763
vt 0.749888 0.197767
vn 0.000000 0.999783 0.020844
vn 0.000000 0.999783 0.020844
vn 0.000000 0.999783 0.020844
vn 0.000000 0.999783 0.020844
vn 0.856199 0.010769 -0.516534
vn 0.856199 0.010769 -0.516534
vn 0.856199 0.010769 -0.516534
vn 0.856199 0.010769 -0.516534
vn -0.000000 -0.999783 -0.020844
vn -0.000000 -0.999783 -0.020844
vn -0.000000 -0.999783 -0.020844
vn -0.000000 -0.999783 -0.020844
vn -0.856199 -0.010769 0.516534
vn -0.856199 -0.010769 0.516534
vn -0.856199 -0.010769 0.516534
vn -0.856199 -0.010769 0.516534
vn 0.516646 -0.017846 0.856013
vn 0.516646 -0.017846 0.856013
vn 0.516646 -0.017846 0.856013
vn 0.516646 -0.017846 0.856013
vn -0.516646 0.017846 -0.856013
vn -0.516646 0.017846 -0.856013
vn -0.516646 0.017846 -0.856013
vn -0.516646 0.017846 -0.856013
s 1
g group1 pCube12
usemtl phong3SG
f 41/135/121 42/122/122 43/137/123
f 43/137/123 42/122/122 44/140/124
s 2
f 43/123/125 44/138/126 45/141/127
f 45/141/127 44/138/126 46/126/128
s 3
f 45/125/129 46/142/130 47/143/131
f 47/143/131 46/142/130 48/128/132
s 4
f 47/127/133 48/144/134 41/129/135
f 41/129/135 48/144/134 42/130/136
s 5
f 42/139/137 48/131/138 44/124/139
f 44/124/139 48/131/138 46/132/140
s 6
f 47/133/141 41/121/142 45/134/143
f 45/134/143 41/121/142 43/136/144
g default
v -1622.946213 14.150482 801.782277
v -1620.044620 14.050253 806.589830
v -1620.423753 14.182208 800.260510
v -1617.522160 14.081979 805.068063
v -1620.423753 -21.309486 799.520573
v -1617.522160 -21.409714 804.328127
v -1622.946213 -21.341212 801.042340
v -1620.044620 -21.441440 805.849893
vt 0.251673 0.120055
vt 0.865844 0.026115
vt 0.253235 0.093697
vt 0.998051 1.002056
vt 0.731828 0.023203
vt 0.503235 0.996622
vt 0.499888 0.197767
vt 0.861389 0.152763
vt 0.499888 0.996483
vt 0.749888 0.996483
vt 0.748603 0.156502
vt 0.998602 0.158363
vt 0.001673 0.120055
vt 0.001673 0.994792
vt 0.866321 0.155675
vt 0.251673 0.994792
vt 0.995881 0.155197
vt 0.503235 0.093697
vt 0.748051 1.000195
vt 0.995404 0.025637
vt 0.253235 0.996622
vt 0.861389 0.023203
vt 0.731828 0.152763
vt 0.749888 0.197767
vn 0.000000 0.999783 0.020844
vn 0.000000 0.999783 0.020844
vn 0.000000 0.999783 0.020844
vn 0.000000 0.999783 0.020844
vn 0.856199 0.010769 -0.516534
vn 0.856199 0.010769 -0.516534
vn 0.856199 0.010769 -0.516534
vn 0.856199 0.010769 -0.516534
vn -0.000000 -0.999783 -0.020844
vn -0.000000 -0.999783 -0.020844
vn -0.000000 -0.999783 -0.020844
vn -0.000000 -0.999783 -0.020844
vn -0.856199 -0.010769 0.516534
vn -0.856199 -0.010769 0.516534
vn -0.856199 -0.010769 0.516534
vn -0.856199 -0.010769 0.516534
vn 0.516646 -0.017846 0.856013
vn 0.516646 -0.017846 0.856013
vn 0.516646 -0.017846 0.856013
vn 0.516646 -0.017846 0.856013
vn -0.516646 0.017846 -0.856013
vn -0.516646 0.017846 -0.856013
vn -0.516646 0.017846 -0.856013
vn -0.516646 0.017846 -0.856013
s 1
g group1 pCube13
usemtl phong3SG
f 49/159/145 50/146/146 51/161/147
f 51/161/147 50/146/146 52/164/148
s 2
f 51/147/149 52/162/150 53/165/151
f 53/165/151 52/162/150 54/150/152
s 3
f 53/149/153 54/166/154 55/167/155
f 55/167/155 54/166/154 56/152/156
s 4
f 55/151/157 56/168/158 49/153/159
f 49/153/159 56/168/158 50/154/160
s 5
f 50/163/161 56/155/162 52/148/163
f 52/148/163 56/155/162 54/156/164
s 6
f 55/157/165 49/145/166 53/158/167
f 53/158/167 49/145/166 51/160/168
g default
v -1567.905793 7.587186 790.697318
v -1565.325592 10.066632 795.025917
v -1565.383332 7.618912 789.175551
v -1562.803132 10.098358 793.504150
v -1556.993436 -24.231384 802.418514
v -1554.413235 -21.751938 806.747113
v -1559.515897 -24.263110 803.940280
v -1556.935696 -21.783664 808.268879
vt 0.251673 0.120055
vt 0.865844 0.026115
vt 0.253235 0.093697
vt 0.998051 1.002056
vt 0.731828 0.023203
vt 0.503235 0.996622
vt 0.499888 0.197767
vt 0.861389 0.152763
vt 0.499888 0.996483
vt 0.749888 0.996483
vt 0.748603 0.156502
vt 0.998602 0.158363
vt 0.001673 0.120055
vt 0.001673 0.994792
vt 0.866321 0.155675
vt 0.251673 0.994792
vt 0.995881 0.155197
vt 0.503235 0.093697
vt 0.748051 1.000195
vt 0.995404 0.025637
vt 0.253235 0.996622
vt 0.861389 0.023203
vt 0.731828 0.152763
vt 0.749888 0.197767
vn -0.236339 0.897206 -0.373047
vn -0.236339 0.897206 -0.373047
vn -0.236339 0.897206 -0.373047
vn -0.236339 0.897206 -0.373047
vn 0.856199 0.010769 -0.516534
vn 0.856199 0.010769 -0.516534
vn 0.856199 0.010769 -0.516534
vn 0.856199 0.010769 -0.516534
vn 0.236339 -0.897206 0.373047
vn 0.236339 -0.897206 0.373047
vn 0.236339 -0.897206 0.373047
vn 0.236339 -0.897206 0.373047
vn -0.856199 -0.010769 0.516534
vn -0.856199 -0.010769 0.516534
vn -0.856199 -0.010769 0.516534
vn -0.856199 -0.010769 0.516534
vn 0.459420 0.441480 0.770733
vn 0.459420 0.441480 0.770733
vn 0.459420 0.441480 0.770733
vn 0.459420 0.441480 0.770733
vn -0.459420 -0.441480 -0.770733
vn -0.459420 -0.441480 -0.770733
vn -0.459420 -0.441480 -0.770733
vn -0.459420 -0.441480 -0.770733
s 1
g group1 pCube14
usemtl phong3SG
f 57/183/169 58/170/170 59/185/171
f 59/185/171 58/170/170 60/188/172
s 2
f 59/171/173 60/186/174 61/189/175
f 61/189/175 60/186/174 62/174/176
s 3
f 61/173/177 62/190/178 63/191/179
f 63/191/179 62/190/178 64/176/180
s 4
f 63/175/181 64/192/182 57/177/183
f 57/177/183 64/192/182 58/178/184
s 5
f 58/187/185 64/179/186 60/172/187
f 60/172/187 64/179/186 62/180/188
s 6
f 63/181/189 57/169/190 61/182/191
f 61/182/191 57/169/190 59/184/192
g default
v -1546.187766 11.652574 747.161988
v -1543.581539 9.094332 751.428700
v -1543.665305 11.684301 745.640221
v -1541.059078 9.126058 749.906934
v -1551.727400 -19.916044 731.617788
v -1549.121174 -22.474287 735.884501
v -1554.249861 -19.947770 733.139555
v -1551.643634 -22.506013 737.406268
vt 0.251673 0.120055
vt 0.865844 0.026115
vt 0.253235 0.093697
vt 0.998051 1.002056
vt 0.731828 0.023203
vt 0.503235 0.996622
vt 0.499888 0.197767
vt 0.861389 0.152763
vt 0.499888 0.996483
vt 0.749888 0.996483
vt 0.748603 0.156502
vt 0.998602 0.158363
vt 0.001673 0.120055
vt 0.001673 0.994792
vt 0.866321 0.155675
vt 0.251673 0.994792
vt 0.995881 0.155197
vt 0.503235 0.093697
vt 0.748051 1.000195
vt 0.995404 0.025637
vt 0.253235 0.996622
vt 0.861389 0.023203
vt 0.731828 0.152763
vt 0.749888 0.197767
vn 0.227105 0.890165 0.395005
vn 0.227105 0.890165 0.395005
vn 0.227105 0.890165 0.395005
vn 0.227105 0.890165 0.395005
vn 0.856199 0.010769 -0.516534
vn 0.856199 0.010769 -0.516534
vn 0.856199 0.010769 -0.516534
vn 0.856199 0.010769 -0.516534
vn -0.227105 -0.890165 -0.395005
vn -0.227105 -0.890165 -0.395005
vn -0.227105 -0.890165 -0.395005
vn -0.227105 -0.890165 -0.395005
vn -0.856199 -0.010769 0.516534
vn -0.856199 -0.010769 0.516534
vn -0.856199 -0.010769 0.516534
vn -0.856199 -0.010769 0.516534
vn 0.464054 -0.455510 0.759713
vn 0.464054 -0.455510 0.759713
vn 0.464054 -0.455510 0.759713
vn 0.464054 -0.455510 0.759713
vn -0.464054 0.455510 -0.759713
vn -0.464054 0.455510 -0.759713
vn -0.464054 0.455510 -0.759713
vn -0.464054 0.455510 -0.759713
s 1
g group1 pCube15
usemtl phong3SG
f 65/207/193 66/194/194 67/209/195
f 67/209/195 66/194/194 68/212/196
s 2
f 67/195/197 68/210/198 69/213/199
f 69/213/199 68/210/198 70/198/200
s 3
f 69/197/201 70/214/202 71/215/203
f 71/215/203 70/214/202 72/200/204
s 4
f 71/199/205 72/216/206 65/201/207
f 65/201/207 72/216/206 66/202/208
s 5
f 66/211/209 72/203/210 68/196/211
f 68/196/211 72/203/210 70/204/212
s 6
f 71/205/213 65/193/214 69/206/215
f 69/206/215 65/193/214 67/208/216
g default
v -1646.619068 -1.702280 853.606618
v -1645.893844 3.709450 854.921564
v -1644.096607 -1.670554 852.084851
v -1643.371384 3.741177 853.399797
v -1626.338096 -11.154767 881.323400
v -1625.612872 -5.743037 882.638346
v -1628.860556 -11.186493 882.845167
v -1628.135332 -5.774763 884.160113
vt 0.251673 0.120055
vt 0.865844 0.026115
vt 0.253235 0.093697
vt 0.998051 1.002056
vt 0.731828 0.023203
vt 0.503235 0.996622
vt 0.499888 0.197767
vt 0.861389 0.152763
vt 0.499888 0.996483
vt 0.749888 0.996483
vt 0.748603 0.156502
vt 0.998602 0.158363
vt 0.001673 0.120055
vt 0.001673 0.994792
vt 0.866321 0.155675
vt 0.251673 0.994792
vt 0.995881 0.155197
vt 0.503235 0.093697
vt 0.748051 1.000195
vt 0.995404 0.025637
vt 0.253235 0.996622
vt 0.861389 0.023203
vt 0.731828 0.152763
vt 0.749888 0.197767
vn -0.500248 0.267165 -0.823635
vn -0.500248 0.267165 -0.823635
vn -0.500248 0.267165 -0.823635
vn -0.500248 0.267165 -0.823635
vn 0.856199 0.010769 -0.516534
vn 0.856199 0.010769 -0.516534
vn 0.856199 0.010769 -0.516534
vn 0.856199 0.010769 -0.516534
vn 0.500248 -0.267165 0.823635
vn 0.500248 -0.267165 0.823635
vn 0.500248 -0.267165 0.823635
vn 0.500248 -0.267165 0.823635
vn -0.856199 -0.010769 0.516534
vn -0.856199 -0.010769 0.516534
vn -0.856199 -0.010769 0.516534
vn -0.856199 -0.010769 0.516534
vn 0.129130 0.963591 0.234134
vn 0.129130 0.963591 0.234134
vn 0.129130 0.963591 0.234134
vn 0.129130 0.963591 0.234134
vn -0.129130 -0.963591 -0.234134
vn -0.129130 -0.963591 -0.234134
vn -0.129130 -0.963591 -0.234134
vn -0.129130 -0.963591 -0.234134
s 1
g group1 pCube16
usemtl phong3SG
f 73/231/217 74/218/218 75/233/219
f 75/233/219 74/218/218 76/236/220
s 2
f 75/219/221 76/234/222 77/237/223
f 77/237/223 76/234/222 78/222/224
s 3
f 77/221/225 78/238/226 79/239/227
f 79/239/227 78/238/226 80/224/228
s 4
f 79/223/229 80/240/230 73/225/231
f 73/225/231 80/240/230 74/226/232
s 5
f 74/235/233 80/227/234 76/220/235
f 76/220/235 80/227/234 78/228/236
s 6
f 79/229/237 73/217/238 77/230/239
f 77/230/239 73/217/238 75/232/240
