# This file uses centimeters as units for non-parametric coordinates.

v -0.593190 -0.593190 0.593190
v 0.593190 -0.593190 0.593190
v -0.593190 0.593190 0.593190
v 0.593190 0.593190 0.593190
v -0.593190 0.593190 -0.593190
v 0.593190 0.593190 -0.593190
v -0.593190 -0.593190 -0.593190
v 0.593190 -0.593190 -0.593190
v -0.800807 0.800807 0.000000
v 0.800807 0.000000 -0.800807
v 0.000000 -0.800807 -0.800807
v -0.800807 0.000000 -0.800807
v 0.800807 -0.800807 0.000000
v -0.800807 -0.800807 0.000000
v 0.000000 -0.800807 0.800807
v 0.800807 0.000000 0.800807
v 0.000000 0.800807 0.800807
v -0.800807 0.000000 0.800807
v 0.800807 0.800807 0.000000
v 0.000000 0.800807 -0.800807
v 0.000000 0.000000 1.067743
v 0.000000 1.067743 0.000000
v 0.000000 0.000000 -1.067743
v 0.000000 -1.067743 0.000000
v 1.067743 0.000000 0.000000
v -1.067743 0.000000 0.000000
vt 0.375000 0.000000
vt 0.375000 1.000000
vt 0.625000 0.000000
vt 0.625000 1.000000
vt 0.375000 0.250000
vt 0.625000 0.250000
vt 0.375000 0.500000
vt 0.125000 0.250000
vt 0.625000 0.500000
vt 0.875000 0.250000
vt 0.375000 0.750000
vt 0.125000 0.000000
vt 0.625000 0.750000
vt 0.875000 0.000000
vt 0.500000 0.125000
vt 0.500000 0.375000
vt 0.500000 0.625000
vt 0.500000 0.875000
vt 0.750000 0.125000
vt 0.250000 0.125000
vt 0.500000 0.000000
vt 0.500000 1.000000
vt 0.625000 0.125000
vt 0.500000 0.250000
vt 0.375000 0.125000
vt 0.625000 0.375000
vt 0.750000 0.250000
vt 0.500000 0.500000
vt 0.375000 0.375000
vt 0.250000 0.250000
vt 0.625000 0.625000
vt 0.875000 0.125000
vt 0.500000 0.750000
vt 0.375000 0.625000
vt 0.125000 0.125000
vt 0.625000 0.875000
vt 0.750000 0.000000
vt 0.375000 0.875000
vt 0.250000 0.000000
vn 0.707107 -0.000000 -0.707107
vn 0.000000 -0.000000 -1.000000
vn 0.577350 0.577350 -0.577350
vn 0.000000 0.707107 -0.707107
vn -0.577350 0.577350 -0.577350
vn -0.707107 -0.000000 -0.707107
vn 0.000000 -0.707107 -0.707107
vn -0.577350 -0.577350 -0.577350
vn 0.577350 -0.577350 -0.577350
vn 0.707107 -0.707107 0.000000
vn 0.000000 -1.000000 0.000000
vn -0.707107 -0.707107 0.000000
vn 0.000000 -0.707107 0.707107
vn -0.577350 -0.577350 0.577350
vn 0.577350 -0.577350 0.577350
vn 0.707107 -0.000000 0.707107
vn 0.000000 0.000000 1.000000
vn -0.707107 -0.000000 0.707107
vn 0.000000 0.707107 0.707107
vn -0.577350 0.577350 0.577350
vn 0.577350 0.577350 0.577350
vn 0.707107 0.707107 0.000000
vn 0.000000 1.000000 0.000000
vn -0.707107 0.707107 -0.000000
vn -1.000000 -0.000000 0.000000
vn 1.000000 0.000000 0.000000
f 18/25/1 21/15/2 1/1/3
f 1/1/3 21/15/2 15/21/4
f 15/21/4 21/15/2 2/3/5
f 2/3/5 21/15/2 16/23/6
f 17/24/7 4/6/8 21/15/2
f 21/15/2 4/6/8 16/23/6
f 18/25/1 3/5/9 21/15/2
f 21/15/2 3/5/9 17/24/7
f 9/29/10 22/16/11 3/5/9
f 3/5/9 22/16/11 17/24/7
f 17/24/7 22/16/11 4/6/8
f 4/6/8 22/16/11 19/26/12
f 20/28/13 6/9/14 22/16/11
f 22/16/11 6/9/14 19/26/12
f 9/29/10 5/7/15 22/16/11
f 22/16/11 5/7/15 20/28/13
f 12/34/16 23/17/17 5/7/15
f 5/7/15 23/17/17 20/28/13
f 20/28/13 23/17/17 6/9/14
f 6/9/14 23/17/17 10/31/18
f 11/33/19 8/13/20 23/17/17
f 23/17/17 8/13/20 10/31/18
f 12/34/16 7/11/21 23/17/17
f 23/17/17 7/11/21 11/33/19
f 14/38/22 24/18/23 7/11/21
f 7/11/21 24/18/23 11/33/19
f 11/33/19 24/18/23 8/13/20
f 8/13/20 24/18/23 13/36/24
f 15/22/4 2/4/5 24/18/23
f 24/18/23 2/4/5 13/36/24
f 14/38/22 1/2/3 24/18/23
f 24/18/23 1/2/3 15/22/4
f 16/23/6 25/19/25 2/3/5
f 2/3/5 25/19/25 13/37/24
f 13/37/24 25/19/25 8/14/20
f 8/14/20 25/19/25 10/32/18
f 19/27/12 6/10/14 25/19/25
f 25/19/25 6/10/14 10/32/18
f 16/23/6 4/6/8 25/19/25
f 25/19/25 4/6/8 19/27/12
f 12/35/16 26/20/26 7/12/21
f 7/12/21 26/20/26 14/39/22
f 14/39/22 26/20/26 1/1/3
f 1/1/3 26/20/26 18/25/1
f 9/30/10 3/5/9 26/20/26
f 26/20/26 3/5/9 18/25/1
f 12/35/16 5/8/15 26/20/26
f 26/20/26 5/8/15 9/30/10
