# This file uses centimeters as units for non-parametric coordinates.

mtllib lod2_rock_bigmama.mtl
g default
v -15.811676 -9.944850 9.825565
v 13.185436 -11.296041 12.548179
v -13.534790 7.044323 10.601916
v 11.613612 6.601630 11.721510
v -10.600318 6.626122 -9.825340
v 9.202323 5.917190 -11.110117
v -14.112940 -9.230340 -7.557930
v 10.428786 -8.353509 -10.576650
v -13.312812 9.972510 0.179647
v 12.707856 -0.682687 -13.965656
v 0.600721 -11.263504 -15.257961
v -14.455844 -1.107739 -12.884992
v 15.840639 -11.530105 0.394980
v -17.681295 -11.710217 2.984924
v -0.659833 -12.586321 13.788792
v 16.670247 -3.462133 13.443335
v -0.575577 11.717293 14.844987
v -17.953434 -2.549390 11.644050
v 13.079288 8.408375 -2.614681
v 0.434377 8.489125 -14.043912
v -2.912955 -0.987984 19.283215
v 0.000000 13.643001 -0.000000
v -0.173196 -1.551207 -19.560632
v 0.054356 -15.365341 2.511072
v 17.881508 -1.695862 -1.482683
v -20.821282 -1.692018 1.776886
vt 0.892609 0.874969
vt 0.764898 0.813448
vt 0.800533 0.705913
vt 0.941450 0.789465
vt 0.640811 0.725584
vt 0.687689 0.633006
vt 0.831501 0.579447
vt 0.979458 0.661111
vt 0.721573 0.550506
vt 0.359032 0.605100
vt 0.206210 0.535628
vt 0.289345 0.471977
vt 0.439540 0.522188
vt 0.141012 0.444050
vt 0.215072 0.400150
vt 0.393723 0.365242
vt 0.487160 0.424237
vt 0.294598 0.333917
vt 0.306569 0.203424
vt 0.451456 0.234642
vt 0.309646 0.063456
vt 0.510021 0.101632
vt 0.589865 0.303819
vt 0.604085 0.182777
vt 0.534558 0.661914
vt 0.439313 0.810881
vt 0.265001 0.696369
vt 0.616062 0.872125
vt 0.366338 0.913938
vt 0.236000 0.776434
vt 0.517245 0.980817
vt 0.049924 0.235660
vt 0.178162 0.228196
vt 0.074879 0.063115
vt 0.170245 0.014388
vt 0.629481 0.469038
vt 0.580093 0.569532
vn -0.025432 -0.752255 0.658381
vn -0.089197 0.013465 0.995923
vn -0.465325 -0.700234 0.541428
vn -0.696237 0.037954 0.716807
vn 0.405463 -0.733647 0.545310
vn 0.736219 0.039265 0.675603
vn 0.579487 0.622009 0.526592
vn 0.040344 0.772698 0.633491
vn -0.563135 0.647552 0.513376
vn 0.048811 0.997364 -0.053699
vn -0.571029 0.815461 -0.094599
vn 0.648263 0.756877 -0.083015
vn 0.502689 0.676558 -0.538120
vn -0.016441 0.766934 -0.641515
vn -0.510336 0.683830 -0.521473
vn -0.089725 -0.031330 -0.995474
vn -0.690384 0.042023 -0.722222
vn 0.699477 0.043197 -0.713348
vn 0.503530 -0.706824 -0.496848
vn -0.027730 -0.803424 -0.594762
vn -0.499972 -0.738035 -0.453136
vn -0.003504 -0.998156 -0.060593
vn -0.541504 -0.837233 -0.076256
vn 0.614237 -0.781949 -0.106159
vn 0.987122 0.107589 -0.118385
vn -0.979041 0.165882 -0.118157
s 1
g lod2_rock1 game
usemtl phong1SG
f 15/32/1 21/33/2 1/14/3
f 1/14/3 21/33/2 18/15/4
f 2/34/5 16/35/6 15/32/1
f 15/32/1 16/35/6 21/33/2
f 16/35/6 4/21/7 21/33/2
f 21/33/2 4/21/7 17/19/8
f 18/15/4 21/33/2 3/18/9
f 3/18/9 21/33/2 17/19/8
f 17/19/8 22/20/10 3/18/9
f 3/18/9 22/20/10 9/16/11
f 17/19/8 4/21/7 22/20/10
f 22/20/10 4/21/7 19/22/12
f 19/22/12 6/24/13 22/20/10
f 22/20/10 6/24/13 20/23/14
f 9/16/11 22/20/10 5/17/15
f 5/17/15 22/20/10 20/23/14
f 20/36/14 23/37/16 5/17/15
f 5/17/15 23/37/16 12/13/17
f 20/36/14 6/9/13 23/37/16
f 23/37/16 6/9/13 10/6/18
f 10/6/18 8/5/19 23/37/16
f 23/37/16 8/5/19 11/25/20
f 23/37/16 11/25/20 12/13/17
f 12/13/17 11/25/20 7/10/21
f 11/25/20 24/26/22 7/10/21
f 7/10/21 24/26/22 14/27/23
f 11/25/20 8/5/19 24/26/22
f 24/26/22 8/5/19 13/28/24
f 13/28/24 2/31/5 24/26/22
f 24/26/22 2/31/5 15/29/1
f 14/27/23 24/26/22 1/30/3
f 1/30/3 24/26/22 15/29/1
f 2/1/5 13/2/24 16/4/6
f 16/4/6 13/2/24 25/3/25
f 13/2/24 8/5/19 25/3/25
f 25/3/25 8/5/19 10/6/18
f 25/3/25 10/6/18 19/7/12
f 19/7/12 10/6/18 6/9/13
f 16/4/6 25/3/25 4/8/7
f 4/8/7 25/3/25 19/7/12
f 14/11/23 26/12/26 7/10/21
f 7/10/21 26/12/26 12/13/17
f 14/11/23 1/14/3 26/12/26
f 26/12/26 1/14/3 18/15/4
f 18/15/4 3/18/9 26/12/26
f 26/12/26 3/18/9 9/16/11
f 26/12/26 9/16/11 12/13/17
f 12/13/17 9/16/11 5/17/15
